<?xml version="1.0" encoding="UTF-8" standalone="no"?>
<!-- Created with Inkscape (http://www.inkscape.org/) -->
<svg id="svg2" xmlns:rdf="http://www.w3.org/1999/02/22-rdf-syntax-ns#" xmlns="http://www.w3.org/2000/svg" viewBox="0 0 400 400" version="1.1" xmlns:cc="http://creativecommons.org/ns#" xmlns:xlink="http://www.w3.org/1999/xlink" xmlns:dc="http://purl.org/dc/elements/1.1/">
 <defs id="defs4">
  <filter id="filter3992" height="1.7011207" width="1.1203417" color-interpolation-filters="sRGB" y="-0.35056034" x="-0.060170807">
   <feGaussianBlur id="feGaussianBlur3994" stdDeviation="11.584609"/>
  </filter>
  <filter id="filter3816" height="2.2" width="2.2" color-interpolation-filters="sRGB" y="-0.60000002" x="-0.60000002">
   <feGaussianBlur id="feGaussianBlur3818" stdDeviation="25"/>
  </filter>
  <filter id="filter3858" height="2.2563479" width="1.2731191" color-interpolation-filters="sRGB" y="-0.62817389" x="-0.13655955">
   <feGaussianBlur id="feGaussianBlur3860" stdDeviation="14.654294"/>
  </filter>
  <radialGradient id="radialGradient3005" gradientUnits="userSpaceOnUse" cy="915.52" cx="406.9" gradientTransform="matrix(1,0,0,0.1716418,0,566.99693)" r="231.03">
   <stop id="stop3592-4-2" stop-color="#2b2b2b" offset="0"/>
   <stop id="stop3594-0-7" stop-color="#666" offset="1"/>
  </radialGradient>
  <radialGradient id="radialGradient3009" gradientUnits="userSpaceOnUse" cy="810.57" cx="406.9" gradientTransform="matrix(1,0,0,0.1716418,0,566.99693)" r="231.03">
   <stop id="stop3592" stop-color="#DDD" offset="0"/>
   <stop id="stop3594" stop-color="#b2b2b2" offset="1"/>
  </radialGradient>
  <radialGradient id="radialGradient3006" gradientUnits="userSpaceOnUse" cy="229.08" cx="436.56" gradientTransform="matrix(1.3755428,0,0,0.0979955,-400.5106,779.50342)" r="192.27">
   <stop id="stop3708" stop-color="#ececec" offset="0"/>
   <stop id="stop3710" stop-color="#bdbdbd" offset="1"/>
  </radialGradient>
  <radialGradient id="radialGradient3010" gradientUnits="userSpaceOnUse" cy="242.36" cx="380" gradientTransform="matrix(0.63944449,0,0,0.44778491,-42.988906,750.48424)" r="200">
   <stop id="stop3678" stop-color="#ececec" offset="0"/>
   <stop id="stop3680" stop-color="#bdbdbd" offset="1"/>
  </radialGradient>
  <linearGradient id="linearGradient3020" y2="495.26" gradientUnits="userSpaceOnUse" x2="677.32" gradientTransform="matrix(0.63944449,0,0,0.63944449,-72.817799,521.40101)" y1="645.87" x1="571.76">
   <stop id="stop3781" stop-color="#bdbdbd" offset="0"/>
   <stop id="stop3783" stop-color="#ececec" offset="1"/>
  </linearGradient>
  <filter id="filter3830" height="1.1764584" width="1.375055" y="-0.088229205" x="-0.1875275">
   <feGaussianBlur id="feGaussianBlur3832" stdDeviation="8.5269349"/>
  </filter>
 </defs>
 <metadata id="metadata7">
  <rdf:RDF>
   <cc:Work rdf:about="">
    <dc:format>image/svg+xml</dc:format>
    <dc:type rdf:resource="http://purl.org/dc/dcmitype/StillImage"/>
    <dc:title/>
   </cc:Work>
  </rdf:RDF>
 </metadata>
 <g id="layer1" transform="translate(0,-652.36218)">
  <path id="path3777" stroke-linejoin="miter" d="m316.77,858.99,4.1146-20.573s39.089,3.086,39.089,48.347-66.863,47.318-66.863,47.318l8.2293-19.545s40.118-5.1433,41.146-28.802c1.0287-23.659-25.716-28.802-25.716-26.745z" stroke="#d6d6d6" stroke-linecap="butt" stroke-width="0.63944447px" fill="url(#linearGradient3020)"/>
  <g id="g2894" transform="matrix(0.63944449,0,0,0.63944449,-55.777796,433.15767)">
   <path id="path2816-9-6" d="m637.93,684.48c0,21.901-103.44,39.655-231.03,39.655-127.6,0-231.03-17.754-231.03-39.655s103.44-39.655,231.03-39.655c127.6,0,231.03,17.754,231.03,39.655z" transform="matrix(0.94276551,0,0,1.5342667,16.391971,-186.48364)" filter="url(#filter3992)" fill="url(#radialGradient3005)"/>
   <path id="path2816-9" d="m637.93,684.48c0,21.901-103.44,39.655-231.03,39.655-127.6,0-231.03-17.754-231.03-39.655s103.44-39.655,231.03-39.655c127.6,0,231.03,17.754,231.03,39.655z" transform="matrix(0.94276551,0,0,1.5342667,14.725304,-181.1503)" fill="url(#radialGradient3005)"/>
   <path id="path3598" d="m637.93,684.48c0,21.901-103.44,39.655-231.03,39.655-127.6,0-231.03-17.754-231.03-39.655s103.44-39.655,231.03-39.655c127.6,0,231.03,17.754,231.03,39.655z" transform="matrix(1,0,0,1.5342667,-6.8965454,-189.65858)" fill="#f2f2f2"/>
   <path id="path2816" d="m637.93,684.48c0,21.901-103.44,39.655-231.03,39.655-127.6,0-231.03-17.754-231.03-39.655s103.44-39.655,231.03-39.655c127.6,0,231.03,17.754,231.03,39.655z" transform="matrix(1,0,0,1.5342667,-6.8965454,-192.65858)" fill="url(#radialGradient3009)"/>
   <path id="path2816-1" style="marker-end:none;" d="m637.93,684.48c0,21.901-103.44,39.655-231.03,39.655-127.6,0-231.03-17.754-231.03-39.655s103.44-39.655,231.03-39.655c127.6,0,231.03,17.754,231.03,39.655z" fill-opacity="0.39153436" transform="matrix(0.64291045,0,0,0.98639605,138.40196,182.34945)" stroke="#b7b7b7" stroke-miterlimit="4" stroke-dasharray="none" stroke-width="6.27869081" fill="#979797"/>
  </g>
  <path id="path3856" d="m534.29,210.52c0,15.461-57.654,27.994-128.77,27.994-71.119,0-128.77-12.533-128.77-27.994s57.654-27.994,128.77-27.994c71.119,0,128.77,12.533,128.77,27.994z" transform="matrix(0.63944449,0,0,0.63944449,-59.303873,844.11565)" filter="url(#filter3858)" fill="#000"/>
  <path id="path2898" fill="url(#radialGradient3010)" d="m72.111,813.22s0,179.04,127.89,179.04,127.89-179.04,127.89-179.04,0,25.578-127.89,25.578-127.24-27.197-127.89-25.578z"/>
  <path id="path2902" fill="#e6e6e6" d="m72.178,813.22s0,25.578,127.89,25.578,127.89-25.578,127.89-25.578,0-25.578-127.89-25.578-128.86,26.387-127.89,25.578z"/>
  <path id="path2902-1" d="m83.368,813.38s0,18.599,116.69,18.599,116.69-18.599,116.69-18.599,0-18.599-116.69-18.599-117.58,19.188-116.69,18.599z" stroke="#d6d6d6" stroke-width="0.54349619" fill="url(#radialGradient3006)"/>
  <path id="path2902-1-9-4" fill="#00F" d="m73.339,829.49c-0.39167,0.94409-0.28687,1.4702-0.13892,1.3485,0,0-0.01803,25.049,126.86,25.049,126.87,0,126.88-25.049,126.88-25.049s-0.015-0.38054-0.25469-1.0513c-1.7346,4.7944-15.61,23.975-126.62,23.975-113.6,0-125.47-20.07-126.72-24.272z"/>
  <path id="path3834" opacity="0.25" stroke-linejoin="miter" d="m359.08,605.56s40.923-40.923,40.923-81.847c0-40.923-54.564-68.205-54.564-109.13,0-40.923,40.923-40.923,54.564-40.923s54.564,40.923,54.564,40.923-27.282-13.641-54.564-13.641-40.923,13.641-27.282,27.282,54.564,54.564,54.564,95.488c0,40.923-67.821,83.561-68.205,81.847z" transform="matrix(0.48898396,0,0,0.48898396,4.406416,514.82847)" filter="url(#filter3830)" stroke="#000" stroke-linecap="butt" stroke-miterlimit="4" stroke-dasharray="none" stroke-width="0.68178766999999996" fill="#784421"/>
  <path id="path2902-1-8" d="M200.06,150.88c-94.85,0-107.83,13.57-109.06,16.74,11.3,5.35,39.36,12,109.06,12,69.34,0,97.49-6.57,108.91-11.9-1.04-2.88-11.1-16.84-108.91-16.84z" transform="translate(0,652.36218)" stroke="#d6d6d6" stroke-width="0.50790149" fill="#784421"/>
  <path id="path2978" opacity="0.5" d="m480,150c0,27.614-22.386,50-50,50s-50-22.386-50-50,22.386-50,50-50,50,22.386,50,50z" transform="matrix(0.92060663,0,0,0.63944449,-195.86085,702.74243)" filter="url(#filter3816)" fill="#FFF"/>
 </g>
</svg>
